<svg width="17" height="17" viewBox="0 0 17 17" fill="none" xmlns="http://www.w3.org/2000/svg">
<path d="M8.50001 0C10.6874 0.0681955 12.7584 1.00156 14.2582 2.59519C15.7581 4.18882 16.5644 6.31249 16.5 8.5C16.5644 10.6875 15.7581 12.8112 14.2582 14.4048C12.7584 15.9984 10.6874 16.9318 8.50001 17C6.31262 16.9318 4.24166 15.9984 2.74177 14.4048C1.24188 12.8112 0.435631 10.6875 0.500009 8.5C0.435631 6.31249 1.24188 4.18882 2.74177 2.59519C4.24166 1.00156 6.31262 0.0681955 8.50001 0V0Z" fill="#B7B7B7"/>
<path d="M6.583 10.836L4.068 8.32L3.229 9.159L6.583 12.513L13.77 5.326L12.929 4.487L6.583 10.836Z" fill="white"/>
</svg>
